# xmcd
#
# Track frame offsets: 
#        150
#        13722
#        27150
#        42462
#        56445
#        68480
#        80480
#        93807
#        107442
#        120180
#        135627
#        149235
#        161742
#        174942
#        187430
#        200517
#        213487
#        227412
#        241982
#        254565
#        267727
#        281430
#        294030
#        307100
#        319722
#
# Disc length: 4423 seconds
#
# Revision: 0
# Processed by: cddbd v1.5.1PL2 Copyright (c) Steve Scherf et al.
# Submitted via: ExactAudioCopy v0.95a5
#
DISCID=6a114519
DTITLE=Various Artist - Martin Scorsese Presents The Blues: A Musical Journey
DTITLE=Various Artist - Disc 2
DYEAR=2003
DGENRE=Blues
TTITLE0=Skip James - Devil Got My Woman
TTITLE1=Lead Belly - C.C. Rider
TTITLE2=Big Joe Williams - Baby Please Don't Go
TTITLE3=Roosevelt Sykes - Dirty Mother For You (Don't You Know)
TTITLE4=Billie Holiday - Billie's Blues
TTITLE5=Robert Johnson - Cross Road Blues
TTITLE6=Sonny Boy Williamson - I Good Mornin' Little School Girl
TTITLE7=Bukka White - Shake 'Em On Down
TTITLE8=Joe Turner and Pete Johnson - Roll 'Em Pete
TTITLE9=Count Basie Orchestra with Jimmy Rushing - Going To Chicago Bl
TTITLE9=ues
TTITLE10=Big Bill Broonzy - Key To The Highway
TTITLE11=Memphis Minnie - Me And My Chauffeur Blues
TTITLE12=Big Maceo Merriweather - Worried Life Blues
TTITLE13=Tommy McClennon - Cross Cut Saw Blues
TTITLE14=Lionel Hampton Sextet with Dinah Washington - Evil Gal Blues
TTITLE15=Sister Rosetta Tharpe - Strange Things Happening Everyday
TTITLE16=Joe Liggins - Honeydripper Pt.I
TTITLE17=Johnny Moore's Three Blazers featuring Charles Brown - Drifti
TTITLE17=ng Blues
TTITLE18=Louis Jordan - Let The Good Times Roll
TTITLE19=Arthur "Big Boy" Crudup - That's All Right Mama
TTITLE20=T-Bone Walker - Call It Stormy Monday
TTITLE21=Wynonie Harris - Good Rockin' Tonight
TTITLE22=Jimmy Witherspoon - Ain't Nobody's Business, Part One
TTITLE23=The Johnny Otis Quintette with Little Esther and The Robins - D
TTITLE23=ouble Crossing Blues
TTITLE24=Peter Chatman and Louis Simpkins - Mother Earth
EXTD=
EXTT0=
EXTT1=
EXTT2=
EXTT3=
EXTT4=
EXTT5=
EXTT6=
EXTT7=
EXTT8=
EXTT9=
EXTT10=
EXTT11=
EXTT12=
EXTT13=
EXTT14=
EXTT15=
EXTT16=
EXTT17=
EXTT18=
EXTT19=
EXTT20=
EXTT21=
EXTT22=
EXTT23=
EXTT24=
PLAYORDER=
